<svg xmlns="http://www.w3.org/2000/svg" width="300" height="28" viewBox="0 0 300 28" role="img"><title>PREPRINT · 2026</title><rect x="0.5" y="2.5" width="101.986083984375" height="22" rx="5" fill="#221E35"/><g fill="#B8A0EF" aria-label="PREPRINT · 2026" transform="translate(9.000,17.000) scale(0.0045410,-0.0045410)"><path d="M399 1327V766H633Q773 766 851.5 840.0Q930 914 930 1047Q930 1180 852.0 1253.5Q774 1327 633 1327ZM197 1493H633Q883 1493 1012.0 1379.5Q1141 1266 1141 1047Q1141 826 1012.5 713.0Q884 600 633 600H399V0H197Z" transform="translate(0,0)"/><path d="M760 705Q838 685 893.0 629.5Q948 574 1030 408L1233 0H1016L838 377Q761 538 699.5 584.5Q638 631 539 631H346V0H143V1493H559Q805 1493 936.0 1382.0Q1067 1271 1067 1061Q1067 913 986.5 819.5Q906 726 760 705ZM346 1327V797H567Q712 797 783.0 862.0Q854 927 854 1061Q854 1190 778.5 1258.5Q703 1327 559 1327Z" transform="translate(1233,0)"/><path d="M197 1493H1083V1323H399V881H1053V711H399V170H1102V0H197Z" transform="translate(2466,0)"/><path d="M399 1327V766H633Q773 766 851.5 840.0Q930 914 930 1047Q930 1180 852.0 1253.5Q774 1327 633 1327ZM197 1493H633Q883 1493 1012.0 1379.5Q1141 1266 1141 1047Q1141 826 1012.5 713.0Q884 600 633 600H399V0H197Z" transform="translate(3699,0)"/><path d="M760 705Q838 685 893.0 629.5Q948 574 1030 408L1233 0H1016L838 377Q761 538 699.5 584.5Q638 631 539 631H346V0H143V1493H559Q805 1493 936.0 1382.0Q1067 1271 1067 1061Q1067 913 986.5 819.5Q906 726 760 705ZM346 1327V797H567Q712 797 783.0 862.0Q854 927 854 1061Q854 1190 778.5 1258.5Q703 1327 559 1327Z" transform="translate(4932,0)"/><path d="M201 1493H1030V1323H717V170H1030V0H201V170H514V1323H201Z" transform="translate(6165,0)"/><path d="M139 1493H395L899 264V1493H1094V0H838L334 1229V0H139Z" transform="translate(7398,0)"/><path d="M47 1493H1186V1323H719V0H516V1323H47Z" transform="translate(8631,0)"/><path d="M489 864H741V559H489Z" transform="translate(11097,0)"/><path d="M373 170H1059V0H152V170Q339 367 479.0 518.0Q619 669 672 731Q772 853 807.0 928.5Q842 1004 842 1083Q842 1208 768.5 1279.0Q695 1350 567 1350Q476 1350 376.0 1317.0Q276 1284 164 1217V1421Q267 1470 366.5 1495.0Q466 1520 563 1520Q782 1520 915.5 1403.5Q1049 1287 1049 1098Q1049 1002 1004.5 906.0Q960 810 860 694Q804 629 697.5 514.0Q591 399 373 170Z" transform="translate(13563,0)"/><path d="M483 750Q483 805 521.5 845.0Q560 885 614 885Q670 885 710.0 845.0Q750 805 750 750Q750 694 710.5 655.0Q671 616 614 616Q558 616 520.5 654.0Q483 692 483 750ZM616 1360Q475 1360 405.5 1208.0Q336 1056 336 745Q336 435 405.5 283.0Q475 131 616 131Q758 131 827.5 283.0Q897 435 897 745Q897 1056 827.5 1208.0Q758 1360 616 1360ZM616 1520Q855 1520 977.5 1324.0Q1100 1128 1100 745Q1100 363 977.5 167.0Q855 -29 616 -29Q377 -29 255.0 167.0Q133 363 133 745Q133 1128 255.0 1324.0Q377 1520 616 1520Z" transform="translate(14796,0)"/><path d="M373 170H1059V0H152V170Q339 367 479.0 518.0Q619 669 672 731Q772 853 807.0 928.5Q842 1004 842 1083Q842 1208 768.5 1279.0Q695 1350 567 1350Q476 1350 376.0 1317.0Q276 1284 164 1217V1421Q267 1470 366.5 1495.0Q466 1520 563 1520Q782 1520 915.5 1403.5Q1049 1287 1049 1098Q1049 1002 1004.5 906.0Q960 810 860 694Q804 629 697.5 514.0Q591 399 373 170Z" transform="translate(16029,0)"/><path d="M991 1460V1274Q928 1311 857.0 1330.5Q786 1350 709 1350Q517 1350 418.0 1205.5Q319 1061 319 780Q367 880 452.0 933.5Q537 987 647 987Q863 987 981.5 854.5Q1100 722 1100 479Q1100 237 978.0 104.0Q856 -29 635 -29Q375 -29 254.0 157.5Q133 344 133 745Q133 1123 278.5 1321.5Q424 1520 700 1520Q774 1520 848.0 1504.5Q922 1489 991 1460ZM631 829Q502 829 428.0 736.0Q354 643 354 479Q354 315 428.0 222.0Q502 129 631 129Q765 129 833.0 217.5Q901 306 901 479Q901 653 833.0 741.0Q765 829 631 829Z" transform="translate(17262,0)"/></g><path d="M121.986083984375 14L147.986083984375 7" fill="none" stroke="#2D394C" stroke-width="1" /><path d="M121.986083984375 14L147.986083984375 21" fill="none" stroke="#2D394C" stroke-width="1" /><path d="M147.986083984375 7L173.986083984375 14" fill="none" stroke="#2D394C" stroke-width="1" /><path d="M147.986083984375 21L173.986083984375 14" fill="none" stroke="#2D394C" stroke-width="1" /><circle cx="121.986083984375" cy="14" r="2" fill="#B8A0EF"/><circle cx="147.986083984375" cy="7" r="2" fill="#B8A0EF"/><circle cx="147.986083984375" cy="21" r="2" fill="#B8A0EF"/><circle cx="173.986083984375" cy="14" r="2" fill="#B8A0EF"/></svg>